<svg width="49" height="59" viewBox="0 0 49 59" fill="none" xmlns="http://www.w3.org/2000/svg">
<path d="M24.5 20.5C24.5 31.8218 31.8218 41 20.5 41C9.17816 41 0 31.8218 0 20.5C0 9.17816 9.17816 0 20.5 0C31.8218 0 24.5 9.17816 24.5 20.5Z" fill="#5FC0E6"/>
<path d="M36.392 42.492H38.414V43.248H36.392V42.492ZM36.464 44.22H38.75V45H35.498V40.8H38.672V41.58H36.464V44.22ZM40.8258 45.048C40.5218 45.048 40.2478 44.98 40.0038 44.844C39.7598 44.704 39.5658 44.51 39.4218 44.262C39.2818 44.014 39.2118 43.722 39.2118 43.386C39.2118 43.046 39.2818 42.752 39.4218 42.504C39.5658 42.256 39.7598 42.064 40.0038 41.928C40.2478 41.792 40.5218 41.724 40.8258 41.724C41.0978 41.724 41.3358 41.784 41.5398 41.904C41.7438 42.024 41.9018 42.206 42.0138 42.45C42.1258 42.694 42.1818 43.006 42.1818 43.386C42.1818 43.762 42.1278 44.074 42.0198 44.322C41.9118 44.566 41.7558 44.748 41.5518 44.868C41.3518 44.988 41.1098 45.048 40.8258 45.048ZM40.9878 44.28C41.1398 44.28 41.2778 44.244 41.4018 44.172C41.5258 44.1 41.6238 43.998 41.6958 43.866C41.7718 43.73 41.8098 43.57 41.8098 43.386C41.8098 43.198 41.7718 43.038 41.6958 42.906C41.6238 42.774 41.5258 42.672 41.4018 42.6C41.2778 42.528 41.1398 42.492 40.9878 42.492C40.8318 42.492 40.6918 42.528 40.5678 42.6C40.4438 42.672 40.3438 42.774 40.2678 42.906C40.1958 43.038 40.1598 43.198 40.1598 43.386C40.1598 43.57 40.1958 43.73 40.2678 43.866C40.3438 43.998 40.4438 44.1 40.5678 44.172C40.6918 44.244 40.8318 44.28 40.9878 44.28ZM41.8338 45V44.34L41.8518 43.38L41.7918 42.426V40.548H42.7278V45H41.8338ZM44.9561 45.048C44.6881 45.048 44.4481 44.996 44.2361 44.892C44.0281 44.788 43.8661 44.63 43.7501 44.418C43.6341 44.202 43.5761 43.928 43.5761 43.596V41.772H44.5121V43.458C44.5121 43.726 44.5681 43.924 44.6801 44.052C44.7961 44.176 44.9581 44.238 45.1661 44.238C45.3101 44.238 45.4381 44.208 45.5501 44.148C45.6621 44.084 45.7501 43.988 45.8141 43.86C45.8781 43.728 45.9101 43.564 45.9101 43.368V41.772H46.8461V45H45.9581V44.112L46.1201 44.37C46.0121 44.594 45.8521 44.764 45.6401 44.88C45.4321 44.992 45.2041 45.048 44.9561 45.048Z" fill="black"/>
<path d="M42.0584 5.28851C41.8066 5.76252 41.1404 6.67725 40.5852 6.64073C40.0301 6.60422 39.0627 6.36721 38.783 6.55195C38.6371 6.64789 37.5056 7.24005 36.3425 7.77815C35.2744 8.27221 34.1789 8.72116 33.7964 8.69896C32.9973 8.6517 32.4737 8.51208 32.0882 8.62736C31.7027 8.74264 29.303 9.24314 29.303 9.24314C29.303 9.24314 29.3951 9.38456 29.6072 9.79914C29.6148 9.81415 29.6215 9.82957 29.6272 9.84532C29.7758 10.2391 29.5088 11.0951 29.3041 11.6189C29.3032 11.6205 29.3024 11.6222 29.3019 11.6239L29.2986 11.6322C29.2979 11.6338 29.2972 11.6353 29.2963 11.6368C29.2954 11.639 29.2946 11.6413 29.2941 11.6436C29.2941 11.6461 29.2919 11.649 29.2904 11.6519C29.2807 11.6751 29.2685 11.7059 29.2573 11.7331C29.2564 11.7357 29.2553 11.7382 29.254 11.7407C29.2507 11.7492 29.2473 11.7575 29.2447 11.7646C29.2441 11.767 29.2432 11.7693 29.2421 11.7714C29.2421 11.7743 29.2399 11.7772 29.2388 11.7793C29.239 11.7807 29.239 11.7822 29.2388 11.7836C29.2378 11.7872 29.2364 11.7907 29.2347 11.794C29.2291 11.808 29.2235 11.8226 29.2187 11.8373C29.0538 12.3572 29.3587 13.4609 29.5693 14.6807C29.7921 15.9695 29.9187 16.3057 30.2749 19.2275C30.631 22.1492 30.6462 25.6717 29.755 28.8222C28.9328 31.7293 28.6245 31.5743 28.4066 33.0089C28.1886 34.4434 28.1403 39.567 28.1403 39.567C28.1403 39.567 28.1719 39.6547 28.3401 39.804C28.5083 39.9533 28.8035 40.0392 28.964 40.162C29.2885 40.4126 29.5325 40.3847 29.8552 40.4362C29.9703 40.4545 30.338 40.4867 30.3922 40.607C30.4798 40.8068 30.4201 41.0982 30.1694 41.0384C29.7665 40.9432 29.5492 41.0384 29.2228 41.0517C29.1426 41.0549 28.4158 41.1276 27.7099 41.0159C27.213 40.9388 26.7062 40.9439 26.2111 41.0309C25.9173 41.0792 25.0276 41.2303 24.9162 40.8651C24.9089 40.8419 24.905 40.8178 24.9047 40.7935C24.9047 40.7935 24.1909 40.9597 24.1809 40.5787C24.1763 40.3403 24.2139 40.1029 24.2923 39.8767C24.2923 39.8767 22.3304 38.4976 19.7465 38.0945C17.1626 37.6913 11.8811 37.5864 9.10041 34.877C6.31968 32.1675 5.7619 31.0806 4.94491 30.1498C4.30507 29.4205 3.31094 28.3912 4.01912 28.2738C4.7273 28.1563 9.54715 27.8799 11.5777 27.3544C14.1917 26.677 15.3856 26.2675 16.1971 25.8536C17.4597 25.2092 19.6135 23.2401 20.6533 22.0228C21.3043 21.2606 22.3219 19.6363 23.1043 18.5501C23.8868 17.4639 25.3544 15.3255 24.5704 13.7309C24.1463 12.868 22.8288 10.8535 22.8685 9.02439C22.9023 7.47527 24.2715 6.05287 24.234 5.64474C24.234 5.64474 23.6725 6.56412 22.7448 6.81974C21.8172 7.07536 20.8309 7.23969 20.054 6.85339C19.2771 6.4671 19.1256 6.45958 18.6907 6.58989C18.2559 6.72021 18.7836 5.88675 19.1973 5.52122C19.6109 5.15569 18.5478 5.02287 18.5478 5.02287C18.5478 5.02287 19.2905 4.81808 19.7175 4.15862C20.1446 3.49915 19.9522 3.01942 20.7893 2.76057C21.6263 2.50173 23.0174 2.17629 23.2904 1.51038C23.3598 1.34176 23.4196 1.21037 23.476 1.10475C23.6918 0.699123 23.8567 0.675136 24.3302 0.386576C25.0525 -0.0519915 26.1662 -0.179445 27.0039 0.333231C27.1352 0.418733 27.252 0.52332 27.35 0.643272C27.5165 0.840633 27.651 1.06117 27.7489 1.29737C27.8952 1.65789 27.9052 2.00086 27.923 2.09502C27.9304 2.13057 27.9441 2.16462 27.9635 2.19562C27.9868 2.23343 28.0133 2.26935 28.0426 2.30303C28.2484 2.54719 28.7556 2.9428 28.4727 3.19269C28.1897 3.44259 28.4827 3.56539 28.515 3.65811C28.5473 3.75084 28.5024 3.79917 28.3988 3.88688C28.3988 3.88688 28.593 3.95598 28.5473 4.09847C28.5016 4.24096 28.4051 4.33476 28.473 4.52057C28.541 4.70638 28.4307 5.0712 28.0887 5.12239C27.8852 5.15282 27.5517 5.10986 27.2884 5.27956C27.1101 5.39484 27.0674 5.64653 27.0544 6.05824L27.1287 6.55946C27.1287 6.55946 30.0974 6.68441 30.6076 6.81007C31.1178 6.93574 32.4789 7.17668 32.8684 6.97046C33.219 6.78501 33.9335 6.55159 35.081 6.51077C35.2098 6.50612 35.3439 6.50397 35.4839 6.50469C36.8691 6.51042 39.0018 5.59211 39.0939 5.35904C39.186 5.12597 40.2536 3.73151 40.4374 3.87006C40.6213 4.00861 40.3316 4.41603 40.2956 4.61079C40.2596 4.80555 40.3472 5.26739 40.7869 5.15533C41.2266 5.04327 42.0343 4.00324 42.1119 4.08523C42.1895 4.16721 42.3106 4.81486 42.0584 5.28851Z" fill="#003E58"/>
<path d="M40.8372 8.52621C40.8372 8.52621 40.6013 9.26697 39.9888 9.54479C39.3763 9.82262 38.9956 9.85192 38.4178 9.82882C38.2885 9.82365 38.1438 9.81917 37.9908 9.81848C37.4605 9.81848 36.8321 9.86881 36.4179 10.138C35.8846 10.4844 33.801 11.5482 32.89 11.5685C32.1606 11.5847 30.0544 11.5509 29.1694 11.5271C29.3771 11.0229 29.6474 10.2001 29.4973 9.81952C30.5776 9.89811 32.6371 10.1563 32.8376 10.0543C33.1135 9.91396 33.7942 9.6451 34.6916 9.47275C35.473 9.32315 36.7372 8.92123 37.0975 8.69511C37.1376 8.6749 37.1709 8.64497 37.1936 8.6086C37.2645 8.42211 38.0982 7.43421 38.4823 7.60105C38.8664 7.76788 38.4634 7.99745 38.4634 7.99745C38.4634 7.99745 38.0865 8.53035 38.3941 8.58068C38.7016 8.631 39.2923 8.82472 40.0578 8.38213C40.8233 7.93954 40.8372 8.52621 40.8372 8.52621Z" fill="#003E58"/>
<path d="M7.882 46.2H10.15V56H7.882V46.2ZM3.43 56H1.162V46.2H3.43V56ZM8.05 51.982H3.262V50.064H8.05V51.982ZM16.0526 56.112C15.194 56.112 14.438 55.944 13.7846 55.608C13.1406 55.272 12.6413 54.8147 12.2866 54.236C11.932 53.648 11.7546 52.9807 11.7546 52.234C11.7546 51.478 11.9273 50.8107 12.2726 50.232C12.6273 49.644 13.108 49.1867 13.7146 48.86C14.3213 48.524 15.0073 48.356 15.7726 48.356C16.51 48.356 17.1726 48.5147 17.7606 48.832C18.358 49.14 18.8293 49.588 19.1746 50.176C19.52 50.7547 19.6926 51.45 19.6926 52.262C19.6926 52.346 19.688 52.444 19.6786 52.556C19.6693 52.6587 19.66 52.7567 19.6506 52.85H13.5326V51.576H18.5026L17.6626 51.954C17.6626 51.562 17.5833 51.2213 17.4246 50.932C17.266 50.6427 17.0466 50.4187 16.7666 50.26C16.4866 50.092 16.16 50.008 15.7866 50.008C15.4133 50.008 15.082 50.092 14.7926 50.26C14.5126 50.4187 14.2933 50.6473 14.1346 50.946C13.976 51.2353 13.8966 51.5807 13.8966 51.982V52.318C13.8966 52.7287 13.9853 53.0927 14.1626 53.41C14.3493 53.718 14.606 53.956 14.9326 54.124C15.2686 54.2827 15.6606 54.362 16.1086 54.362C16.51 54.362 16.86 54.3013 17.1586 54.18C17.4666 54.0587 17.7466 53.8767 17.9986 53.634L19.1606 54.894C18.8153 55.286 18.3813 55.5893 17.8586 55.804C17.336 56.0093 16.734 56.112 16.0526 56.112ZM21.1467 56V45.612H23.3307V56H21.1467ZM29.0956 56.112C28.2369 56.112 27.4809 55.944 26.8276 55.608C26.1836 55.272 25.6843 54.8147 25.3296 54.236C24.9749 53.648 24.7976 52.9807 24.7976 52.234C24.7976 51.478 24.9703 50.8107 25.3156 50.232C25.6703 49.644 26.1509 49.1867 26.7576 48.86C27.3643 48.524 28.0503 48.356 28.8156 48.356C29.5529 48.356 30.2156 48.5147 30.8036 48.832C31.4009 49.14 31.8723 49.588 32.2176 50.176C32.5629 50.7547 32.7356 51.45 32.7356 52.262C32.7356 52.346 32.7309 52.444 32.7216 52.556C32.7123 52.6587 32.7029 52.7567 32.6936 52.85H26.5756V51.576H31.5456L30.7056 51.954C30.7056 51.562 30.6263 51.2213 30.4676 50.932C30.3089 50.6427 30.0896 50.4187 29.8096 50.26C29.5296 50.092 29.2029 50.008 28.8296 50.008C28.4563 50.008 28.1249 50.092 27.8356 50.26C27.5556 50.4187 27.3363 50.6473 27.1776 50.946C27.0189 51.2353 26.9396 51.5807 26.9396 51.982V52.318C26.9396 52.7287 27.0283 53.0927 27.2056 53.41C27.3923 53.718 27.6489 53.956 27.9756 54.124C28.3116 54.2827 28.7036 54.362 29.1516 54.362C29.5529 54.362 29.9029 54.3013 30.2016 54.18C30.5096 54.0587 30.7896 53.8767 31.0416 53.634L32.2036 54.894C31.8583 55.286 31.4243 55.5893 30.9016 55.804C30.3789 56.0093 29.7769 56.112 29.0956 56.112ZM38.7676 48.356C39.365 48.356 39.897 48.4773 40.3636 48.72C40.8396 48.9533 41.213 49.3173 41.4836 49.812C41.7543 50.2973 41.8896 50.9227 41.8896 51.688V56H39.7056V52.024C39.7056 51.4173 39.5703 50.9693 39.2996 50.68C39.0383 50.3907 38.665 50.246 38.1796 50.246C37.8343 50.246 37.5216 50.3207 37.2416 50.47C36.971 50.61 36.7563 50.8293 36.5976 51.128C36.4483 51.4267 36.3736 51.8093 36.3736 52.276V56H34.1896V48.468H36.2756V50.554L35.8836 49.924C36.1543 49.42 36.5416 49.0327 37.0456 48.762C37.5496 48.4913 38.1236 48.356 38.7676 48.356Z" fill="#003E58"/>
</svg>
