<svg width="1440" height="542" viewBox="0 0 1440 542" fill="none" xmlns="http://www.w3.org/2000/svg">
<path d="M493.953 47.4957C154.046 8.56699 13.7207 143.916 -13.9537 216.457L-33.0002 486.345C-7.93044 554.831 -67.5747 548.673 -13.2678 548.673C41.0392 548.673 1030.84 601.99 1485.35 557.985L1478.23 1.68835C1460 11 1462 52.4519 1360.81 106.52C1234.33 174.104 918.837 96.1566 493.953 47.4957Z" fill="url(#paint0_linear_24_2)"/>
<path d="M116.29 152.528L116.292 152.551L116.295 152.573L121.628 203.942C122.48 212.148 117.796 219.926 110.144 223.011L62.4136 242.252L62.3922 242.26L62.371 242.27L15.1867 263.002C7.66606 266.306 -1.13279 264.256 -6.41786 257.967L-39.7656 218.287L-39.7803 218.27L-39.7956 218.253L-74.339 179.609C-79.8136 173.485 -80.5941 164.484 -76.2554 157.509L-49.0346 113.746L-49.0224 113.726L-49.0108 113.706L-23.1883 69.191C-19.0486 62.0547 -10.6839 58.5219 -2.68203 60.5303L47.4088 73.1029L47.4311 73.1085L47.4535 73.1134L98.0247 84.1719C106.028 85.9221 111.928 92.7278 112.524 100.899L116.29 152.528Z" stroke="white" stroke-opacity="0.51" stroke-width="3"/>
<path d="M1364.01 199.295L1364.01 199.318L1364.02 199.341L1367.13 244.088C1367.7 252.318 1362.76 259.933 1355 262.756L1313.01 278.047L1312.99 278.055L1312.97 278.063L1271.39 294.669C1263.76 297.716 1255.04 295.367 1249.97 288.903L1222.19 253.464L1222.17 253.446L1222.16 253.428L1193.3 218.854C1188.04 212.547 1187.57 203.525 1192.14 196.701L1217.06 159.513L1217.08 159.494L1217.09 159.474L1240.81 121.6C1245.19 114.608 1253.67 111.362 1261.6 113.641L1304.71 126.033L1304.74 126.039L1304.76 126.045L1348.35 137.141C1356.28 139.162 1361.95 146.165 1362.27 154.351L1364.01 199.295Z" stroke="white" stroke-opacity="0.51" stroke-width="3"/>
<path d="M779.542 425.114L779.531 425.134L779.52 425.155L765.13 453.01C761.343 460.34 753.161 464.277 745.071 462.661L714.448 456.545L714.426 456.541L714.403 456.537L683.531 451.354C675.43 449.994 669.196 443.455 668.224 435.299L664.496 404.012L664.493 403.989L664.49 403.966L659.808 372.807C658.588 364.684 662.87 356.729 670.323 353.274L698.724 340.11L698.745 340.1L698.766 340.09L726.679 326.091C734.054 322.393 742.986 324.025 748.577 330.092L769.824 353.148L769.839 353.165L769.855 353.182L791.885 375.665C797.619 381.517 798.821 390.443 794.84 397.603L779.542 425.114Z" stroke="white" stroke-opacity="0.51" stroke-width="3"/>
<defs>
<linearGradient id="paint0_linear_24_2" x1="303.488" y1="728.749" x2="672.797" y2="-181.272" gradientUnits="userSpaceOnUse">
<stop stop-color="#5FC0E6"/>
<stop offset="1" stop-color="#5FC0E6" stop-opacity="0"/>
</linearGradient>
</defs>
</svg>
